<svg width="115" height="27" viewBox="0 0 115 27" fill="none" xmlns="http://www.w3.org/2000/svg">
<g clip-path="url(#clip0_80_24552)">
<path d="M41.4196 4.50132H43.503L50.7588 21.4556H48.0768L46.3766 17.2649H38.3065L36.6303 21.4556H33.9482L41.4196 4.50132ZM45.5384 15.2534L42.3775 7.4707H42.3296L39.1207 15.2534H45.5384Z" fill="#161616"/>
<path d="M58.496 11.9727H55.4069V17.1212C55.4069 17.4405 55.4149 17.7598 55.4308 18.0791C55.4468 18.3824 55.5027 18.6618 55.5985 18.9172C55.7102 19.1567 55.8699 19.3562 56.0774 19.5159C56.3009 19.6596 56.6202 19.7314 57.0353 19.7314C57.2907 19.7314 57.5541 19.7074 57.8255 19.6596C58.0969 19.6117 58.3443 19.5239 58.5678 19.3961V21.3598C58.3124 21.5034 57.9772 21.5992 57.5621 21.6471C57.163 21.711 56.8517 21.7429 56.6282 21.7429C55.798 21.7429 55.1515 21.6312 54.6885 21.4077C54.2415 21.1682 53.9062 20.8649 53.6827 20.4977C53.4752 20.1305 53.3475 19.7234 53.2996 19.2764C53.2677 18.8134 53.2517 18.3505 53.2517 17.8875V11.9727H50.7612V10.1048H53.2517V6.91993H55.4069V10.1048H58.496V11.9727Z" fill="#161616"/>
<path d="M61.2766 3.35187H63.4318V11.8529H63.4797C63.7511 11.2463 64.2221 10.7594 64.8926 10.3922C65.5631 10.009 66.3374 9.81747 67.2154 9.81747C67.7582 9.81747 68.277 9.90528 68.7719 10.0809C69.2828 10.2405 69.7218 10.496 70.089 10.8472C70.4721 11.1984 70.7755 11.6534 70.999 12.2121C71.2225 12.7549 71.3342 13.4015 71.3342 14.1518V21.4556H69.179V14.7505C69.179 14.2237 69.1072 13.7767 68.9635 13.4095C68.8198 13.0263 68.6283 12.723 68.3888 12.4995C68.1493 12.26 67.8699 12.0924 67.5507 11.9966C67.2473 11.8849 66.928 11.829 66.5928 11.829C66.1458 11.829 65.7307 11.9008 65.3476 12.0445C64.9644 12.1882 64.6292 12.4197 64.3418 12.739C64.0544 13.0423 63.8309 13.4334 63.6713 13.9124C63.5116 14.3913 63.4318 14.958 63.4318 15.6126V21.4556H61.2766V3.35187Z" fill="#161616"/>
<path d="M76.2113 16.5704C76.2113 17.0653 76.3151 17.5203 76.5226 17.9354C76.7461 18.3345 77.0335 18.6777 77.3847 18.9651C77.7359 19.2525 78.143 19.476 78.606 19.6356C79.0689 19.7953 79.5479 19.8751 80.0428 19.8751C80.7133 19.8751 81.296 19.7234 81.7909 19.4201C82.2858 19.1008 82.7408 18.6857 83.1558 18.1749L84.7842 19.4201C83.5869 20.9686 81.9106 21.7429 79.7554 21.7429C78.8614 21.7429 78.0472 21.5913 77.3129 21.2879C76.5945 20.9846 75.9798 20.5695 75.469 20.0427C74.9741 19.4999 74.5909 18.8693 74.3195 18.1509C74.0481 17.4166 73.9124 16.6263 73.9124 15.7802C73.9124 14.9341 74.0561 14.1518 74.3435 13.4334C74.6468 12.6991 75.0539 12.0685 75.5647 11.5416C76.0916 10.9988 76.7142 10.5758 77.4326 10.2725C78.151 9.96914 78.9332 9.81747 79.7794 9.81747C80.7851 9.81747 81.6312 9.99308 82.3177 10.3443C83.0201 10.6955 83.5949 11.1585 84.0419 11.7332C84.4889 12.292 84.8082 12.9305 84.9997 13.6489C85.2073 14.3514 85.311 15.0698 85.311 15.8041V16.5704H76.2113ZM83.0122 14.8463C82.9962 14.3673 82.9164 13.9283 82.7727 13.5292C82.645 13.1301 82.4454 12.7869 82.174 12.4995C81.9026 12.1962 81.5594 11.9647 81.1443 11.805C80.7452 11.6294 80.2743 11.5416 79.7315 11.5416C79.2046 11.5416 78.7177 11.6454 78.2707 11.8529C77.8397 12.0445 77.4725 12.2999 77.1692 12.6192C76.8658 12.9385 76.6264 13.2977 76.4508 13.6968C76.2911 14.08 76.2113 14.4631 76.2113 14.8463H83.0122Z" fill="#161616"/>
<path d="M88.0569 3.35187H90.2121V21.4556H88.0569V3.35187Z" fill="#161616"/>
<path d="M93.6899 11.4937C94.2966 10.935 94.999 10.5199 95.7972 10.2485C96.5955 9.96115 97.3937 9.81747 98.1919 9.81747C99.0221 9.81747 99.7325 9.92124 100.323 10.1288C100.93 10.3363 101.425 10.6157 101.808 10.9669C102.191 11.3181 102.47 11.7252 102.646 12.1882C102.838 12.6352 102.933 13.1062 102.933 13.601V19.3961C102.933 19.7953 102.941 20.1624 102.957 20.4977C102.973 20.8329 102.997 21.1522 103.029 21.4556H101.113C101.066 20.8808 101.042 20.3061 101.042 19.7314H100.994C100.515 20.4658 99.948 20.9846 99.2934 21.2879C98.6389 21.5913 97.8806 21.7429 97.0185 21.7429C96.4917 21.7429 95.9888 21.6711 95.5099 21.5274C95.031 21.3837 94.6079 21.1682 94.2407 20.8808C93.8895 20.5935 93.6101 20.2423 93.4026 19.8272C93.195 19.3961 93.0913 18.9012 93.0913 18.3425C93.0913 17.6081 93.2509 16.9935 93.5702 16.4986C93.9055 16.0037 94.3525 15.6046 94.9112 15.3013C95.4859 14.982 96.1485 14.7585 96.8988 14.6308C97.6651 14.4871 98.4793 14.4152 99.3413 14.4152H100.922V13.9363C100.922 13.6489 100.866 13.3616 100.754 13.0742C100.642 12.7869 100.475 12.5314 100.251 12.3079C100.028 12.0685 99.7484 11.8849 99.4132 11.7572C99.0779 11.6135 98.6788 11.5416 98.2159 11.5416C97.8008 11.5416 97.4336 11.5815 97.1143 11.6614C96.811 11.7412 96.5316 11.845 96.2762 11.9727C96.0207 12.0844 95.7893 12.2201 95.5817 12.3798C95.3742 12.5394 95.1746 12.6911 94.9831 12.8348L93.6899 11.4937ZM99.7724 15.9957C99.2615 15.9957 98.7347 16.0276 98.1919 16.0915C97.6651 16.1394 97.1782 16.2432 96.7312 16.4028C96.3001 16.5625 95.9409 16.786 95.6536 17.0733C95.3822 17.3607 95.2465 17.7279 95.2465 18.1749C95.2465 18.8294 95.462 19.3004 95.893 19.5877C96.34 19.8751 96.9387 20.0188 97.689 20.0188C98.2797 20.0188 98.7826 19.923 99.1977 19.7314C99.6127 19.5239 99.948 19.2604 100.203 18.9412C100.459 18.6219 100.642 18.2706 100.754 17.8875C100.866 17.4884 100.922 17.0973 100.922 16.7141V15.9957H99.7724Z" fill="#161616"/>
<path d="M112.094 12.9545C111.839 12.6352 111.52 12.3718 111.136 12.1642C110.769 11.9407 110.314 11.829 109.771 11.829C109.261 11.829 108.814 11.9407 108.43 12.1642C108.063 12.3718 107.88 12.6831 107.88 13.0982C107.88 13.4334 107.983 13.7048 108.191 13.9124C108.414 14.1199 108.67 14.2875 108.957 14.4152C109.261 14.543 109.58 14.6387 109.915 14.7026C110.25 14.7665 110.538 14.8223 110.777 14.8702C111.24 14.982 111.671 15.1177 112.07 15.2773C112.485 15.437 112.837 15.6445 113.124 15.8999C113.427 16.1554 113.659 16.4667 113.818 16.8338C113.994 17.201 114.082 17.648 114.082 18.1749C114.082 18.8134 113.946 19.3642 113.675 19.8272C113.403 20.2742 113.052 20.6414 112.621 20.9287C112.19 21.2161 111.695 21.4236 111.136 21.5513C110.594 21.6791 110.043 21.7429 109.484 21.7429C108.542 21.7429 107.712 21.5992 106.994 21.3119C106.291 21.0245 105.661 20.4977 105.102 19.7314L106.73 18.3904C107.081 18.7416 107.473 19.0529 107.904 19.3243C108.335 19.5957 108.861 19.7314 109.484 19.7314C109.755 19.7314 110.027 19.7074 110.298 19.6596C110.586 19.5957 110.833 19.5079 111.041 19.3961C111.264 19.2684 111.44 19.1168 111.567 18.9412C111.711 18.7496 111.783 18.5341 111.783 18.2946C111.783 17.9753 111.679 17.7119 111.472 17.5044C111.28 17.2968 111.041 17.1372 110.753 17.0254C110.482 16.8977 110.187 16.8019 109.867 16.7381C109.564 16.6582 109.293 16.5944 109.053 16.5465C108.59 16.4347 108.151 16.307 107.736 16.1633C107.321 16.0197 106.954 15.8281 106.634 15.5886C106.315 15.3492 106.06 15.0458 105.868 14.6786C105.677 14.3115 105.581 13.8565 105.581 13.3137C105.581 12.723 105.701 12.2121 105.94 11.7811C106.195 11.3341 106.523 10.9669 106.922 10.6796C107.337 10.3922 107.8 10.1767 108.311 10.033C108.838 9.88931 109.364 9.81747 109.891 9.81747C110.657 9.81747 111.392 9.96115 112.094 10.2485C112.797 10.5359 113.355 11.0148 113.771 11.6853L112.094 12.9545Z" fill="#161616"/>
<path d="M12.9711 22.4533C17.9306 22.4533 21.9511 18.4329 21.9511 13.4733C21.9511 8.51382 17.9306 4.49333 12.9711 4.49333C8.01159 4.49333 3.99111 8.51382 3.99111 13.4733C3.99111 18.4329 8.01159 22.4533 12.9711 22.4533ZM12.9711 26.4444C5.80736 26.4444 0 20.6371 0 13.4733C0 6.30959 5.80736 0.502222 12.9711 0.502222C20.1349 0.502222 25.9422 6.30959 25.9422 13.4733C25.9422 20.6371 20.1349 26.4444 12.9711 26.4444Z" fill="#FC5378"/>
</g>
<defs>
<clipPath id="clip0_80_24552">
<rect width="114.744" height="25.9422" fill="white" transform="translate(0 0.502222)"/>
</clipPath>
</defs>
</svg>
